<svg width="56" height="55" viewBox="0 0 56 55" fill="none" xmlns="http://www.w3.org/2000/svg">
<path d="M36.5759 6.47388H20.5171C14.821 6.47388 13.5629 9.31049 12.8308 12.7876L10.2459 25.1634H46.8472L44.2622 12.7876C43.5302 9.31049 42.272 6.47388 36.5759 6.47388Z" stroke="white" stroke-width="1.5" stroke-linecap="round" stroke-linejoin="round"/>
<path d="M51.3994 45.3398C51.6511 48.0163 49.5008 50.3268 46.7557 50.3268H42.455C39.9844 50.3268 39.6413 49.2745 39.2067 47.9706L38.7491 46.598C38.1087 44.7222 37.6969 43.464 34.4028 43.464H22.6903C19.3962 43.464 18.9158 44.8824 18.3439 46.598L17.8864 47.9706C17.4518 49.2745 17.1087 50.3268 14.6381 50.3268H10.3374C7.59229 50.3268 5.44196 48.0163 5.69359 45.3398L6.97464 31.4084C7.29491 27.9771 7.9583 25.1633 13.9518 25.1633H43.1413C49.1347 25.1633 49.7982 27.9771 50.1185 31.4084L51.3994 45.3398Z" stroke="white" stroke-width="1.5" stroke-linecap="round" stroke-linejoin="round"/>
<path d="M10.2462 18.3006H7.95865" stroke="white" stroke-width="1.5" stroke-linecap="round" stroke-linejoin="round"/>
<path d="M49.1355 18.3006H46.8478" stroke="white" stroke-width="1.5" stroke-linecap="round" stroke-linejoin="round"/>
<g opacity="0.4">
<path d="M28.5468 6.86273V11.4379" stroke="white" stroke-width="1.5" stroke-linecap="round" stroke-linejoin="round"/>
<path d="M25.1154 11.4378H31.9782" stroke="white" stroke-width="1.5" stroke-linecap="round" stroke-linejoin="round"/>
</g>
<path opacity="0.4" d="M14.8213 34.3137H21.6841" stroke="white" stroke-width="1.5" stroke-linecap="round" stroke-linejoin="round"/>
<path opacity="0.4" d="M35.4096 34.3137H42.2723" stroke="white" stroke-width="1.5" stroke-linecap="round" stroke-linejoin="round"/>
</svg>
