<svg width="56" height="56" viewBox="0 0 56 56" fill="none" xmlns="http://www.w3.org/2000/svg">
<g clip-path="url(#clip0_162_2748)">
<path d="M46.908 46.4886H31.2657C31.0869 46.5407 30.9298 46.6494 30.818 46.7985C30.7063 46.9475 30.6458 47.1287 30.6458 47.315C30.6458 47.5013 30.7063 47.6825 30.818 47.8315C30.9298 47.9805 31.0869 48.0893 31.2657 48.1415H47.7517C47.98 48.1415 48.1989 48.0507 48.3604 47.8893C48.5218 47.7278 48.6125 47.5088 48.6125 47.2805C48.608 42.3266 46.6386 37.5767 43.1364 34.0729C39.6343 30.5691 34.8853 28.5976 29.9313 28.5907C27.1291 28.584 24.3621 29.2139 21.8389 30.433C21.7077 30.456 21.5837 30.5092 21.4765 30.5884C21.3693 30.6676 21.282 30.7704 21.2213 30.8891C21.1607 31.0078 21.1284 31.1389 21.1271 31.2721C21.1257 31.4053 21.1553 31.537 21.2135 31.6569C21.2717 31.7767 21.3569 31.8815 21.4625 31.9628C21.568 32.0441 21.691 32.0998 21.8217 32.1256C21.9524 32.1513 22.0873 32.1463 22.2158 32.1111C22.3443 32.0758 22.4628 32.0112 22.5621 31.9223C24.8598 30.8122 27.3795 30.2382 29.9313 30.2436C34.3042 30.2585 38.5043 31.9527 41.6636 34.9759C44.8231 37.9991 46.7005 42.1206 46.908 46.4886Z" fill="white"/>
<path d="M41.9398 9.41015C42.0133 9.22454 42.02 9.01911 41.9587 8.82908C41.8975 8.63906 41.7721 8.47622 41.604 8.36846L30.6278 1.84293C30.4969 1.76738 30.3484 1.7276 30.1973 1.7276C30.0462 1.7276 29.8977 1.76738 29.7668 1.84293L18.7991 8.36846C18.6185 8.47957 18.4851 8.65347 18.4247 8.85683C18.3643 9.06015 18.3812 9.27873 18.472 9.4704L19.9871 12.7848C19.4952 14.2633 19.3299 15.8309 19.5027 17.3795C19.6755 18.928 20.1822 20.4207 20.988 21.7543C21.7938 23.088 22.8793 24.2309 24.1697 25.1042C25.4601 25.9776 26.9247 26.5605 28.4623 26.8128C29.9999 27.0651 31.574 26.9806 33.0758 26.5654C34.5777 26.1502 35.9715 25.414 37.1612 24.4078C38.3508 23.4015 39.3079 22.1491 39.9665 20.7369C40.625 19.3248 40.9693 17.7865 40.9756 16.2283C40.9763 15.0937 40.7962 13.9661 40.4418 12.8881L41.9398 9.41015ZM21.0805 16.1509C21.0822 15.4197 21.1718 14.6913 21.3474 13.9815H39.0558C39.3601 15.2328 39.3959 16.5344 39.1608 17.8006C38.9256 19.0667 38.4249 20.2687 37.6916 21.3274C36.9583 22.386 36.009 23.2773 34.9062 23.9424C33.8035 24.6076 32.5724 25.0316 31.2939 25.1865C30.0155 25.3414 28.7186 25.2237 27.489 24.8412C26.2593 24.4586 25.1246 23.8199 24.1597 22.967C23.1948 22.1141 22.4214 21.0665 21.8907 19.8932C21.3599 18.7198 21.0838 17.4473 21.0805 16.1595V16.1509ZM40.132 9.41873L38.8492 12.3286H21.6314L20.2884 9.41015L30.1714 3.52167L40.132 9.41873Z" fill="white"/>
<path opacity="0.4" d="M9.6824 49.1487C10.4925 50.4428 11.6184 51.5097 12.9541 52.2491C14.2898 52.9885 15.7917 53.3762 17.3185 53.3756C18.7089 53.3719 20.0794 53.0456 21.3224 52.4225C22.5653 51.7994 23.6467 50.8964 24.4816 49.7846C25.3164 48.6728 25.8819 47.3823 26.1337 46.0149C26.3853 44.6475 26.3163 43.2404 25.9321 41.9042C25.5478 40.5679 24.8588 39.339 23.9191 38.3142C22.9795 37.2893 21.815 36.4965 20.517 35.998C19.2191 35.4994 17.8232 35.3088 16.4391 35.4411C15.0551 35.5734 13.7205 36.0251 12.5406 36.7605C10.5219 38.027 9.08763 40.042 8.55185 42.3641C8.01612 44.6861 8.42266 47.1258 9.6824 49.1487ZM24.5499 43.1828H10.0785C10.2462 42.1567 10.631 41.1783 11.207 40.3128C11.7829 39.4473 12.537 38.7147 13.4187 38.1637C14.4429 37.5244 15.6091 37.1475 16.8138 37.0664C18.0185 36.9853 19.2247 37.2025 20.3254 37.6988C21.4261 38.1952 22.3875 38.9552 23.1244 39.9117C23.8612 40.8683 24.3509 41.9918 24.5499 43.1828ZM21.2011 50.6036C20.3232 51.1504 19.341 51.5081 18.3171 51.6539V44.8357H24.6274C24.5551 46.002 24.2047 47.1341 23.6057 48.1376C23.0067 49.141 22.1763 49.9865 21.1839 50.6036H21.2011ZM10.0095 44.8357H16.6901V51.7228C14.9337 51.5719 13.2909 50.7922 12.0635 49.5269C10.8361 48.2616 10.1068 46.5957 10.0095 44.8357Z" fill="white"/>
</g>
<defs>
<clipPath id="clip0_162_2748">
<rect width="56" height="56" fill="white"/>
</clipPath>
</defs>
</svg>
