<svg width="25" height="20" viewBox="0 0 25 20" fill="none" xmlns="http://www.w3.org/2000/svg">
<path d="M12 1.00002C14.28 1.00002 16.36 1.85002 17.94 3.26002C18.85 4.07002 19.6 5.05002 20.13 6.17001C21.58 6.60001 22.69 7.83001 22.94 9.34001L12 1.00002ZM12 1.00002C9.80908 0.995225 7.69363 1.80009 6.06 3.26002L12 1.00002ZM12 19C9.71 19 7.62 18.14 6.04 16.72C5.14 15.92 4.39 14.94 3.87 13.83C3.15228 13.6168 2.50863 13.2069 2.01198 12.6466C1.51533 12.0863 1.18555 11.3981 1.06 10.66L12 19ZM12 19C14.2031 19.0024 16.3294 18.1904 17.97 16.72L12 19ZM22.3234 9.4421L22.3246 9.44954L22.326 9.45696C22.3582 9.62562 22.375 9.80631 22.375 10C22.375 10.1937 22.3582 10.3744 22.326 10.5431L22.3259 10.543L22.3236 10.5567C22.2193 11.1787 21.9427 11.7591 21.5251 12.2318C21.1075 12.7046 20.5658 13.0508 19.9613 13.2311L19.6949 13.3106L19.5756 13.5616C19.089 14.5849 18.4018 15.5001 17.5548 16.2528L17.5529 16.2546C16.0271 17.6221 14.0496 18.3773 12.0007 18.375H12C9.86943 18.375 7.92697 17.5756 6.45778 16.2551L6.45523 16.2529C5.61528 15.5063 4.91809 14.594 4.43597 13.5649L4.31694 13.3108L4.04796 13.2309C3.44217 13.0509 2.89888 12.7049 2.47968 12.232C2.06048 11.7591 1.78212 11.1782 1.67615 10.5552L1.67627 10.5552L1.67396 10.5431C1.64183 10.3744 1.625 10.1937 1.625 10C1.625 9.80631 1.64183 9.62562 1.67396 9.45695L1.67411 9.45698L1.67638 9.44347C1.78097 8.82034 2.05868 8.23919 2.47781 7.76637C2.89693 7.29355 3.44058 6.94812 4.04665 6.76953L4.31659 6.68999L4.43597 6.43515C4.91866 5.40481 5.61589 4.48375 6.47301 3.72911L6.47302 3.72913L6.47647 3.72604C7.99519 2.36881 9.96183 1.62056 11.9986 1.62502H12C14.1215 1.62502 16.0546 2.41517 17.5239 3.72633L17.5245 3.72687C18.3746 4.48362 19.0726 5.3966 19.5651 6.43735L19.6845 6.68981L19.9523 6.76922C21.1771 7.13245 22.1132 8.17249 22.3234 9.4421Z" stroke="#9DAEB6" stroke-width="1.25"/>
</svg>
