<svg width="22" height="22" viewBox="0 0 22 22" fill="none" xmlns="http://www.w3.org/2000/svg">
<g clip-path="url(#clip0_162_3014)">
<path d="M9.07322 10.3488C9.11855 10.7342 8.7332 11.0062 8.39319 10.8022C7.14647 10.0768 6.53444 8.73944 5.71841 7.58339C4.40369 9.66881 3.40631 11.6862 3.40631 13.8397C3.40631 18.2145 6.51177 21.5466 10.8866 21.5466C15.2615 21.5466 18.5936 18.2145 18.5936 13.8397C18.5936 8.35409 12.8587 7.40205 12.9267 0.465759C10.6146 2.09783 8.43852 5.74732 9.07322 10.3488Z" fill="#FFD500"/>
<path d="M10.8866 22C6.28511 22 2.95297 18.5772 2.95297 13.8397C2.95297 11.4596 4.10902 9.30614 5.33307 7.33406C5.42374 7.19805 5.55975 7.13005 5.69575 7.13005C5.85443 7.13005 5.99043 7.19805 6.0811 7.31139C6.28511 7.5834 6.46645 7.87808 6.64779 8.17276C7.21448 9.0568 7.75851 9.8955 8.61988 10.3942C7.96252 5.70199 10.1839 1.82583 12.6547 0.0804189C12.7907 -0.0102516 12.9721 -0.0329192 13.1307 0.0577513C13.2894 0.125754 13.3801 0.284427 13.3801 0.465768C13.3347 3.97925 14.8761 5.906 16.3495 7.74207C17.6869 9.39681 19.047 11.0969 19.047 13.8397C19.047 18.4865 15.5335 22 10.8866 22ZM5.74109 8.4221C4.72105 10.0995 3.85968 11.9129 3.85968 13.8397C3.85968 18.0332 6.80647 21.0933 10.8866 21.0933C15.0121 21.0933 18.1403 17.9652 18.1403 13.8397C18.1403 11.4142 16.9842 9.98617 15.6468 8.30876C14.2641 6.58603 12.7227 4.65928 12.496 1.39514C10.5466 3.16321 8.98256 6.40468 9.52658 10.2808C9.57192 10.6435 9.41324 10.9835 9.11856 11.1649C8.82389 11.3462 8.4612 11.3462 8.16652 11.1649C7.12381 10.5529 6.51179 9.57815 5.89976 8.64878C5.83176 8.58078 5.78642 8.51277 5.74109 8.4221Z" fill="#FFB800"/>
<path d="M15.7602 17.2398C16.5535 16.0157 17.0069 14.5424 17.0069 12.933L15.7602 17.2398Z" fill="#FF793B"/>
<path d="M15.7602 17.6932C15.6695 17.6932 15.5788 17.6705 15.5108 17.6251C15.3068 17.4891 15.2388 17.2171 15.3748 16.9905C16.1455 15.8117 16.5536 14.4063 16.5536 12.933C16.5536 12.6836 16.7576 12.4796 17.0069 12.4796C17.2562 12.4796 17.4603 12.6836 17.4603 12.933C17.4603 14.5877 17.0069 16.1518 16.1455 17.4891C16.0549 17.6251 15.9189 17.6932 15.7602 17.6932Z" fill="#FFB800"/>
<path d="M14.3774 18.8265C14.5361 18.6905 14.7175 18.5319 14.8535 18.3732L14.3774 18.8265Z" fill="#FF793B"/>
<path d="M14.3775 19.2799C14.2415 19.2799 14.1281 19.2346 14.0374 19.1212C13.8788 18.9399 13.9014 18.6452 14.0828 18.4865C14.2188 18.3505 14.4001 18.2145 14.5135 18.0785C14.6721 17.8972 14.9668 17.8745 15.1482 18.0332C15.3295 18.1918 15.3522 18.4865 15.1935 18.6679C15.0348 18.8492 14.8308 19.0305 14.6721 19.1666C14.5815 19.2346 14.4908 19.2799 14.3775 19.2799Z" fill="#FFB800"/>
</g>
<defs>
<clipPath id="clip0_162_3014">
<rect width="22" height="22" fill="white"/>
</clipPath>
</defs>
</svg>
