<svg width="20" height="20" viewBox="0 0 20 20" fill="none" xmlns="http://www.w3.org/2000/svg">
<path d="M7.63314 9.68335C7.60814 9.68335 7.59148 9.68335 7.56647 9.68335C7.52482 9.67502 7.46648 9.67502 7.41647 9.68335C4.9998 9.60835 3.1748 7.70835 3.1748 5.36669C3.1748 2.98335 5.11647 1.04169 7.4998 1.04169C9.88314 1.04169 11.8248 2.98335 11.8248 5.36669C11.8165 7.70835 9.98314 9.60835 7.65814 9.68335C7.64981 9.68335 7.64147 9.68335 7.63314 9.68335ZM7.4998 2.29169C5.80815 2.29169 4.4248 3.67502 4.4248 5.36669C4.4248 7.03335 5.7248 8.37502 7.38314 8.43335C7.43315 8.42502 7.54147 8.42502 7.64981 8.43335C9.28314 8.35835 10.5665 7.01669 10.5748 5.36669C10.5748 3.67502 9.19147 2.29169 7.4998 2.29169Z" fill="#9DAEB6"/>
<path d="M13.783 9.79165C13.758 9.79165 13.733 9.79165 13.708 9.78331C13.3663 9.81665 13.0163 9.57498 12.983 9.23331C12.9496 8.89165 13.158 8.58331 13.4996 8.54165C13.5996 8.53331 13.708 8.53331 13.7996 8.53331C15.0163 8.46665 15.9663 7.46665 15.9663 6.24165C15.9663 4.97498 14.9413 3.94998 13.6746 3.94998C13.333 3.95831 13.0496 3.67498 13.0496 3.33331C13.0496 2.99165 13.333 2.70831 13.6746 2.70831C15.6246 2.70831 17.2163 4.29998 17.2163 6.24998C17.2163 8.16665 15.7163 9.71665 13.808 9.79165C13.7996 9.79165 13.7913 9.79165 13.783 9.79165Z" fill="#9DAEB6"/>
<path d="M7.64134 18.7916C6.00801 18.7916 4.36634 18.375 3.12467 17.5416C1.96634 16.775 1.33301 15.725 1.33301 14.5833C1.33301 13.4416 1.96634 12.3833 3.12467 11.6083C5.62467 9.94998 9.67467 9.94998 12.158 11.6083C13.308 12.375 13.9497 13.425 13.9497 14.5666C13.9497 15.7083 13.3163 16.7666 12.158 17.5416C10.908 18.375 9.27467 18.7916 7.64134 18.7916ZM3.81634 12.6583C3.01634 13.1916 2.58301 13.875 2.58301 14.5916C2.58301 15.3 3.02467 15.9833 3.81634 16.5083C5.89134 17.9 9.39134 17.9 11.4663 16.5083C12.2663 15.975 12.6997 15.2916 12.6997 14.575C12.6997 13.8666 12.258 13.1833 11.4663 12.6583C9.39134 11.275 5.89134 11.275 3.81634 12.6583Z" fill="#9DAEB6"/>
<path d="M15.2835 17.2917C14.9918 17.2917 14.7335 17.0917 14.6751 16.7917C14.6085 16.45 14.8251 16.125 15.1585 16.05C15.6835 15.9417 16.1668 15.7333 16.5418 15.4417C17.0168 15.0833 17.2751 14.6333 17.2751 14.1583C17.2751 13.6833 17.0168 13.2333 16.5501 12.8833C16.1835 12.6 15.7251 12.4 15.1835 12.275C14.8501 12.2 14.6335 11.8667 14.7085 11.525C14.7835 11.1917 15.1168 10.975 15.4585 11.05C16.1751 11.2083 16.8001 11.4917 17.3085 11.8833C18.0835 12.4667 18.5251 13.2917 18.5251 14.1583C18.5251 15.025 18.0751 15.85 17.3001 16.4417C16.7835 16.8417 16.1335 17.1333 15.4168 17.275C15.3668 17.2917 15.3251 17.2917 15.2835 17.2917Z" fill="#9DAEB6"/>
</svg>
