<svg width="24" height="24" viewBox="0 0 24 24" fill="none" xmlns="http://www.w3.org/2000/svg">
<path d="M11.9997 22.76C10.5197 22.76 9.02969 22.2 7.86969 21.09C4.91969 18.25 1.65969 13.72 2.88969 8.33C3.99969 3.44 8.26969 1.25 11.9997 1.25C11.9997 1.25 11.9997 1.25 12.0097 1.25C15.7397 1.25 20.0097 3.44 21.1197 8.34C22.3397 13.73 19.0797 18.25 16.1297 21.09C14.9697 22.2 13.4797 22.76 11.9997 22.76ZM11.9997 2.75C9.08969 2.75 5.34969 4.3 4.35969 8.66C3.27969 13.37 6.23969 17.43 8.91969 20C10.6497 21.67 13.3597 21.67 15.0897 20C17.7597 17.43 20.7197 13.37 19.6597 8.66C18.6597 4.3 14.9097 2.75 11.9997 2.75Z" fill="#239038"/>
<g clip-path="url(#clip0_162_2786)">
<path d="M15.458 13.595V14.72C15.4585 14.8245 15.4371 14.9278 15.3952 15.0235C15.3534 15.1192 15.292 15.2051 15.2151 15.2757C15.1381 15.3463 15.0473 15.4001 14.9483 15.4336C14.8494 15.467 14.7446 15.4794 14.6405 15.47C13.4866 15.3447 12.3782 14.9503 11.4043 14.3188C10.4982 13.743 9.73004 12.9749 9.15429 12.0688C8.52054 11.0905 8.12613 9.97666 8.00304 8.81754C7.99367 8.71384 8.006 8.60932 8.03923 8.51065C8.07247 8.41197 8.12588 8.32129 8.19608 8.24439C8.26628 8.16749 8.35172 8.10605 8.44697 8.06398C8.54221 8.02191 8.64517 8.00013 8.74929 8.00004H9.87429C10.0563 7.99825 10.2327 8.06269 10.3707 8.18136C10.5087 8.30003 10.5988 8.46483 10.6243 8.64504C10.6718 9.00506 10.7598 9.35856 10.8868 9.69879C10.9372 9.83301 10.9482 9.97888 10.9183 10.1191C10.8884 10.2594 10.8189 10.3881 10.718 10.49L10.2418 10.9663C10.7756 11.9051 11.553 12.6825 12.4918 13.2163L12.968 12.74C13.07 12.6392 13.1987 12.5697 13.339 12.5398C13.4792 12.5099 13.6251 12.5208 13.7593 12.5713C14.0995 12.6982 14.453 12.7863 14.813 12.8338C14.9952 12.8595 15.1616 12.9512 15.2805 13.0916C15.3994 13.232 15.4626 13.4111 15.458 13.595Z" stroke="#239038" stroke-linecap="round" stroke-linejoin="round"/>
</g>
<defs>
<clipPath id="clip0_162_2786">
<rect width="9" height="9" fill="white" transform="translate(7 7)"/>
</clipPath>
</defs>
</svg>
