<svg width="56" height="56" viewBox="0 0 56 56" fill="none" xmlns="http://www.w3.org/2000/svg">
<path d="M42.3635 30.9968C41.4027 31.9346 40.8538 33.2843 40.991 34.7255C41.1969 37.1961 43.4616 39.0032 45.9322 39.0032H50.2786V41.7255C50.2786 46.4608 46.4126 50.3269 41.6773 50.3269H18.5498C19.2589 49.7321 19.8766 49 20.357 48.1765C21.2034 46.8039 21.6837 45.1798 21.6837 43.4641C21.6837 38.4085 17.589 34.3137 12.5335 34.3137C10.3831 34.3137 8.39292 35.0687 6.81448 36.3269V26.3301C6.81448 21.5948 10.6805 17.7288 15.4158 17.7288H41.6773C46.4126 17.7288 50.2786 21.5948 50.2786 26.3301V29.6242H45.6576C44.3766 29.6242 43.2099 30.1274 42.3635 30.9968Z" stroke="white" stroke-width="1.5" stroke-linecap="round" stroke-linejoin="round"/>
<path opacity="0.4" d="M6.81448 28.3888V17.9347C6.81448 15.2124 8.48441 12.7875 11.0237 11.8267L29.1871 4.96397C32.0237 3.88881 35.0661 5.99345 35.0661 9.03593V17.7287" stroke="white" stroke-width="1.5" stroke-linecap="round" stroke-linejoin="round"/>
<path d="M52.7039 31.9575V36.6701C52.7039 37.9282 51.6973 38.9575 50.4162 39.0033H45.9326C43.462 39.0033 41.1973 37.1961 40.9915 34.7255C40.8542 33.2843 41.4032 31.9347 42.364 30.9968C43.2104 30.1274 44.377 29.6242 45.6581 29.6242H50.4162C51.6973 29.67 52.7039 30.6993 52.7039 31.9575Z" stroke="white" stroke-width="1.5" stroke-linecap="round" stroke-linejoin="round"/>
<path opacity="0.4" d="M17.1087 27.451H33.1217" stroke="white" stroke-width="1.5" stroke-linecap="round" stroke-linejoin="round"/>
<path d="M21.6838 43.464C21.6838 45.1797 21.2034 46.8039 20.357 48.1765C19.8766 49 19.259 49.7321 18.5498 50.3268C16.9485 51.7679 14.844 52.6144 12.5335 52.6144C9.19358 52.6144 6.28835 50.8301 4.70992 48.1765C3.86352 46.8039 3.38312 45.1797 3.38312 43.464C3.38312 40.5817 4.70992 37.9968 6.81449 36.3268C8.39292 35.0686 10.3831 34.3137 12.5335 34.3137C17.5891 34.3137 21.6838 38.4085 21.6838 43.464Z" stroke="white" stroke-width="1.5" stroke-miterlimit="10" stroke-linecap="round" stroke-linejoin="round"/>
<path d="M8.96446 43.4642L11.2291 45.7289L16.1018 41.2223" stroke="white" stroke-width="1.5" stroke-linecap="round" stroke-linejoin="round"/>
</svg>
