<svg width="56" height="57" viewBox="0 0 56 57" fill="none" xmlns="http://www.w3.org/2000/svg">
<g clip-path="url(#clip0_162_2750)">
<path opacity="0.4" d="M17.6838 27.8415C15.4885 27.8415 13.3426 27.1906 11.5172 25.971C9.69202 24.7514 8.26936 23.0179 7.42927 20.9897C6.58919 18.9616 6.36939 16.7299 6.79766 14.5768C7.22593 12.4238 8.28304 10.4461 9.83528 8.89375C11.3876 7.34148 13.3653 6.28437 15.5184 5.8561C17.6715 5.42783 19.9032 5.64763 21.9313 6.48771C23.9594 7.3278 25.6929 8.75044 26.9126 10.5757C28.1322 12.401 28.7832 14.5469 28.7832 16.7422C28.7808 19.6852 27.6107 22.5071 25.5297 24.5881C23.4486 26.6692 20.6268 27.8393 17.6838 27.8415ZM17.6838 7.36366C15.8289 7.36366 14.0156 7.9137 12.4734 8.94423C10.931 9.97476 9.72898 11.4395 9.01912 13.1532C8.30927 14.8669 8.12355 16.7526 8.48542 18.5718C8.84729 20.3911 9.74055 22.0622 11.0522 23.3738C12.3638 24.6855 14.0348 25.5787 15.8541 25.9405C17.6733 26.3024 19.559 26.1167 21.2728 25.4068C22.9865 24.697 24.4512 23.4949 25.4818 21.9527C26.5123 20.4103 27.0623 18.5971 27.0623 16.7422C27.0612 14.2544 26.073 11.8687 24.3146 10.1088C22.5563 8.34885 20.1716 7.35848 17.6838 7.35505V7.36366Z" fill="white"/>
<path opacity="0.4" d="M45.6135 24.7958C45.512 24.5916 45.4959 24.3553 45.5685 24.1392C45.641 23.923 45.7965 23.7445 46.0006 23.6428L50.8836 21.2121C51.0867 21.1188 51.3183 21.1083 51.5291 21.1826C51.74 21.2571 51.9136 21.4108 52.0131 21.611C52.1127 21.8112 52.1304 22.0422 52.0625 22.2553C51.9945 22.4684 51.8464 22.6466 51.6494 22.7523L46.7664 25.183C46.5622 25.2844 46.326 25.3006 46.1098 25.228C45.8937 25.1554 45.7151 25 45.6135 24.7958Z" fill="white"/>
<path d="M36.7983 51.2363L29.0804 31.636C29.0296 31.5291 29.0014 31.4128 28.9976 31.2946C28.9937 31.1762 29.0144 31.0584 29.0582 30.9484C29.102 30.8384 29.168 30.7387 29.2521 30.6554C29.3362 30.5722 29.4366 30.5071 29.5469 30.4644C29.6573 30.4216 29.7754 30.4021 29.8936 30.4071C30.0119 30.412 30.1278 30.4413 30.2343 30.4932C30.3407 30.545 30.4353 30.6183 30.5121 30.7082C30.5889 30.7983 30.6464 30.9032 30.6808 31.0165L38.403 50.6125C38.4857 50.8253 38.4805 51.0622 38.3886 51.2712C38.2966 51.4801 38.1254 51.644 37.9126 51.7267C37.6998 51.8094 37.4629 51.8043 37.2539 51.7123C37.0449 51.6203 36.881 51.4491 36.7983 51.2363Z" fill="white" fill-opacity="0.4"/>
<path d="M9.15323 50.9482C8.31213 50.3081 7.75607 49.3633 7.6048 48.3172C7.45352 47.2712 7.71914 46.2076 8.34444 45.3554L17.495 32.8019C18.0802 31.9926 18.9303 31.414 19.8977 31.1664C20.8652 30.9188 21.8889 31.018 22.7909 31.4468L31.5757 35.6542L36.0928 26.4521C36.6013 25.3953 37.4899 24.5694 38.5811 24.1394C39.6723 23.7095 40.8854 23.7073 41.9782 24.1332C42.5591 24.3677 43.0857 24.719 43.5253 25.1653C43.9649 25.6117 44.308 26.1436 44.5335 26.7282C44.759 27.3126 44.8621 27.9372 44.8361 28.5632C44.8103 29.1892 44.656 29.8031 44.383 30.3669L38.4633 42.5161C37.8525 43.7589 36.7784 44.7125 35.472 45.1719C34.1655 45.6311 32.731 45.5597 31.4768 44.9725L22.2186 40.5801L14.8406 50.1995C14.1855 51.0529 13.2184 51.6111 12.1519 51.7515C11.0854 51.8919 10.0067 51.6029 9.15323 50.9482ZM18.8845 33.8172L9.73401 46.3578C9.39101 46.855 9.25399 47.4658 9.35162 48.0618C9.44925 48.6579 9.77405 49.193 10.2577 49.5549C10.7414 49.9166 11.3464 50.0771 11.9459 50.0023C12.5453 49.9276 13.0924 49.6237 13.4726 49.1542L21.2765 38.9797C21.3964 38.8229 21.5666 38.7122 21.7585 38.666C21.9504 38.6198 22.1524 38.6409 22.3306 38.7259L32.1995 43.4195C33.0476 43.8216 34.0199 43.8733 34.9058 43.5633C35.7916 43.2532 36.5196 42.6064 36.9318 41.7631L42.8213 29.6184C42.9891 29.2677 43.0832 28.8863 43.0983 28.4979C43.1132 28.1094 43.0486 27.722 42.9084 27.3594C42.7682 26.9968 42.5553 26.6667 42.2829 26.3893C42.0105 26.112 41.6843 25.8932 41.3242 25.7465C40.6331 25.4856 39.8689 25.4959 39.185 25.7751C38.5011 26.0545 37.9482 26.5822 37.6373 27.2522L32.7415 37.1944C32.6422 37.3986 32.4662 37.5552 32.2518 37.6301C32.0374 37.7051 31.8021 37.6923 31.5972 37.5945L22.0465 33.0171C21.509 32.7602 20.8985 32.6996 20.321 32.8458C19.7434 32.9919 19.2352 33.3356 18.8845 33.8172Z" fill="white"/>
<path d="M43.0919 22.4124C41.9858 22.4124 40.9046 22.0843 39.9848 21.4698C39.065 20.8553 38.3482 19.9818 37.925 18.9599C37.5016 17.938 37.3909 16.8134 37.6067 15.7286C37.8225 14.6437 38.3551 13.6472 39.1373 12.865C39.9194 12.0829 40.9159 11.5503 42.0008 11.3344C43.0857 11.1186 44.2102 11.2294 45.2321 11.6526C46.2541 12.076 47.1275 12.7928 47.7421 13.7125C48.3567 14.6322 48.6846 15.7135 48.6846 16.8197C48.6846 18.3029 48.0954 19.7255 47.0465 20.7743C45.9978 21.8232 44.5753 22.4124 43.0919 22.4124ZM43.0919 12.9478C42.3261 12.9478 41.5776 13.1749 40.9409 13.6003C40.3041 14.0257 39.8079 14.6304 39.5148 15.338C39.2217 16.0455 39.145 16.824 39.2945 17.575C39.4439 18.3261 39.8126 19.016 40.3541 19.5575C40.8956 20.0989 41.5855 20.4677 42.3366 20.6171C43.0876 20.7666 43.8661 20.6898 44.5737 20.3968C45.2811 20.1038 45.8858 19.6074 46.3113 18.9707C46.7368 18.334 46.9638 17.5855 46.9638 16.8197C46.9638 15.7928 46.5559 14.808 45.8297 14.0818C45.1036 13.3557 44.1189 12.9478 43.0919 12.9478Z" fill="white"/>
</g>
<defs>
<clipPath id="clip0_162_2750">
<rect width="56" height="56" fill="white" transform="translate(0 0.901978)"/>
</clipPath>
</defs>
</svg>
