<svg width="56" height="57" viewBox="0 0 56 57" fill="none" xmlns="http://www.w3.org/2000/svg">
<path d="M27.8686 35.4045C28.1552 35.193 28.6205 35.1935 28.9063 35.4045L35.0292 39.9246C36.1724 40.7686 36.7434 40.3531 36.3019 38.9893L33.9438 31.7028C33.8334 31.3618 33.9777 30.9143 34.2645 30.7045L40.4067 26.2116C41.5537 25.3727 41.3394 24.695 39.9206 24.6982L32.3403 24.715C31.9856 24.7157 31.6094 24.4387 31.5008 24.098L29.1741 16.8011C28.7397 15.4386 28.0363 15.4354 27.6008 16.8011L25.2741 24.098C25.1652 24.4395 24.7885 24.7157 24.4346 24.715L16.8543 24.6982C15.4389 24.695 15.2185 25.3706 16.3682 26.2116L22.5104 30.7045C22.7979 30.9148 22.9413 31.3626 22.8311 31.7028L20.473 38.9893C20.0326 40.3498 20.5998 40.7706 21.7457 39.9246L27.8686 35.4045ZM28.3875 36.6261L22.5013 40.9715C20.3502 42.5595 18.4277 41.1426 19.2551 38.5861L21.5221 31.5811L15.6172 27.2618C13.4593 25.6833 14.1976 23.3962 16.8571 23.4021L24.1445 23.4182L26.3812 16.4033C27.1987 13.8398 29.5773 13.8432 30.3937 16.4033L32.6304 23.4182L39.9178 23.4021C42.5809 23.3962 43.3127 25.6855 41.1577 27.2618L35.2528 31.5811L37.5198 38.5861C38.3483 41.146 36.4219 42.5574 34.2736 40.9715L28.3875 36.6261Z" fill="white"/>
<path d="M28.3878 50.0504C16.4934 50.0504 6.85112 40.408 6.85112 28.5137C6.85112 16.6193 16.4934 6.97705 28.3878 6.97705C40.2822 6.97705 49.9245 16.6193 49.9245 28.5137C49.9245 40.408 40.2822 50.0504 28.3878 50.0504ZM28.3878 48.9459C39.6722 48.9459 48.82 39.7981 48.82 28.5137C48.82 17.2293 39.6722 8.0815 28.3878 8.0815C17.1034 8.0815 7.95557 17.2293 7.95557 28.5137C7.95557 39.7981 17.1034 48.9459 28.3878 48.9459Z" fill="white" fill-opacity="0.4"/>
</svg>
