<svg width="24" height="24" viewBox="0 0 24 24" fill="none" xmlns="http://www.w3.org/2000/svg">
<circle cx="12" cy="12" r="12" fill="#27A6E5"/>
<path d="M17.2149 6.15603C17.0025 5.97556 16.669 5.94974 16.3241 6.0885C15.9613 6.23434 6.05585 10.4917 5.65263 10.6657C5.57929 10.6912 4.93878 10.9307 5.00476 11.4642C5.06366 11.9451 5.57844 12.1443 5.6413 12.1673L8.15944 13.0313C8.32651 13.5886 8.94238 15.6447 9.07858 16.0839C9.16353 16.3577 9.30199 16.7175 9.54466 16.7916C9.7576 16.8739 9.9694 16.7987 10.1065 16.6908L11.646 15.2599L14.1313 17.2022L14.1905 17.2376C14.3592 17.3125 14.5209 17.35 14.6752 17.35C14.7944 17.35 14.9088 17.3276 15.0181 17.2828C15.3905 17.1295 15.5394 16.774 15.555 16.7337L17.4114 7.06432C17.5247 6.54789 17.3672 6.28514 17.2149 6.15603ZM10.3803 13.3769L9.53079 15.6469L8.68131 12.8094L15.194 7.98565L10.3803 13.3769Z" fill="white"/>
</svg>
