<svg width="22" height="22" viewBox="0 0 22 22" fill="none" xmlns="http://www.w3.org/2000/svg">
<path d="M16.2149 5.15603C16.0025 4.97556 15.669 4.94974 15.3241 5.0885C14.9613 5.23434 5.05585 9.49174 4.65263 9.66568C4.57929 9.69122 3.93878 9.93071 4.00476 10.4642C4.06366 10.9451 4.57844 11.1443 4.6413 11.1673L7.15944 12.0313C7.32651 12.5886 7.94238 14.6447 8.07858 15.0839C8.16353 15.3577 8.30199 15.7175 8.54466 15.7916C8.7576 15.8739 8.9694 15.7987 9.10645 15.6908L10.646 14.2599L13.1313 16.2022L13.1905 16.2376C13.3592 16.3125 13.5209 16.35 13.6752 16.35C13.7944 16.35 13.9088 16.3276 14.0181 16.2828C14.3905 16.1295 14.5394 15.774 14.555 15.7337L16.4114 6.06432C16.5247 5.54789 16.3672 5.28514 16.2149 5.15603ZM9.38027 12.3769L8.53079 14.6469L7.68131 11.8094L14.194 6.98565L9.38027 12.3769Z" fill="#2E3639"/>
</svg>
