<svg width="22" height="22" viewBox="0 0 22 22" fill="none" xmlns="http://www.w3.org/2000/svg">
<path d="M14.4397 5.2502C12.3433 4.84987 10.1664 4.84987 8.07003 5.2502C7.1428 5.45037 5.97369 6.57131 5.77212 7.45206C5.40929 9.1735 5.40929 10.935 5.77212 12.6564C6.01401 13.5372 7.18311 14.6581 8.07003 14.8583C8.11034 14.8583 8.15065 14.8983 8.15065 14.9384V17.4605C8.15065 17.5806 8.31191 17.6606 8.39254 17.5405L9.60196 16.2995C9.60196 16.2995 10.5695 15.2987 10.7308 15.1385C10.7308 15.1385 10.7711 15.0985 10.8114 15.0985C12.0208 15.1385 13.2705 15.0184 14.48 14.8183C15.4072 14.6181 16.5763 13.4971 16.7779 12.6164C17.1407 10.895 17.1407 9.13347 16.7779 7.41202C16.536 6.57131 15.3669 5.45037 14.4397 5.2502ZM14.48 12.7765C14.2784 13.1769 14.0365 13.4971 13.6334 13.6973C13.5124 13.7373 13.3915 13.7774 13.2705 13.8174C13.1093 13.7774 12.9884 13.7373 12.8674 13.6973C11.5774 13.1769 10.3679 12.4563 9.40039 11.4154C8.87631 10.8149 8.43285 10.1343 8.07003 9.41371C7.90877 9.0534 7.74751 8.73313 7.62657 8.37283C7.50563 8.05256 7.7072 7.73229 7.90877 7.49209C8.11034 7.25189 8.35222 7.09175 8.63442 6.97165C8.83599 6.85155 9.03757 6.93162 9.19882 7.09175C9.52134 7.49209 9.84385 7.89243 10.0857 8.3328C10.247 8.61303 10.2067 8.9333 9.92447 9.13347C9.84385 9.1735 9.80353 9.21354 9.7229 9.2936C9.68259 9.33364 9.60196 9.37367 9.56165 9.45374C9.48102 9.57384 9.48102 9.69394 9.52133 9.81404C9.84385 10.7348 10.4486 11.4554 11.3758 11.8558C11.537 11.9358 11.658 11.9759 11.8596 11.9759C12.1418 11.9358 12.2627 11.6156 12.4643 11.4554C12.6658 11.2953 12.9077 11.2953 13.1496 11.4154C13.3512 11.5355 13.5527 11.6956 13.7946 11.8558C13.9962 12.0159 14.1978 12.136 14.3993 12.2961C14.5203 12.3762 14.5606 12.5764 14.48 12.7765ZM12.7868 9.77401C12.7061 9.77401 12.7465 9.77401 12.7868 9.77401C12.6255 9.77401 12.5852 9.69394 12.5449 9.57384C12.5449 9.49377 12.5449 9.37367 12.5046 9.2936C12.4643 9.13347 12.3836 8.97334 12.2224 8.85323C12.1418 8.8132 12.0611 8.77317 11.9805 8.73313C11.8596 8.6931 11.7789 8.6931 11.658 8.6931C11.537 8.65307 11.4967 8.573 11.4967 8.4529C11.4967 8.37283 11.6177 8.29276 11.6983 8.29276C12.3433 8.3328 12.8271 8.6931 12.9077 9.45374C12.9077 9.49377 12.9077 9.57384 12.9077 9.61387C12.9077 9.69394 12.8674 9.77401 12.7868 9.77401ZM12.3836 8.01253C12.1821 7.93246 11.9805 7.85239 11.7386 7.81236C11.658 7.81236 11.537 7.77232 11.4564 7.77232C11.3355 7.77232 11.2548 7.69226 11.2952 7.57216C11.2952 7.45206 11.3758 7.37199 11.4967 7.41202C11.8999 7.45206 12.2627 7.53212 12.6255 7.69226C13.3512 8.05256 13.7543 8.65307 13.8753 9.45374C13.8753 9.49377 13.8753 9.53381 13.8753 9.57384C13.8753 9.65391 13.8753 9.73397 13.8753 9.85408C13.8753 9.89411 13.8753 9.93414 13.8753 9.97418C13.8349 10.1343 13.5527 10.1743 13.5124 9.97418C13.5124 9.93414 13.4721 9.85408 13.4721 9.81404C13.4721 9.45374 13.3915 9.09344 13.2302 8.77317C12.9884 8.41286 12.7061 8.17266 12.3836 8.01253ZM14.5606 10.4145C14.4397 10.4145 14.359 10.2944 14.359 10.1743C14.359 9.93414 14.3187 9.69394 14.2784 9.45374C14.1171 8.17266 13.069 7.13179 11.8192 6.93162C11.6177 6.89158 11.4161 6.89158 11.2548 6.85155C11.1339 6.85155 10.9726 6.85155 10.9323 6.69142C10.892 6.57132 11.013 6.45121 11.1339 6.45121C11.1742 6.45121 11.2145 6.45121 11.2145 6.45121C11.2952 6.45121 12.8674 6.49125 11.2145 6.45121C12.9077 6.49125 14.3187 7.61219 14.6009 9.2936C14.6412 9.57384 14.6815 9.85408 14.6815 10.1743C14.7622 10.2944 14.6815 10.4145 14.5606 10.4145Z" fill="#2E3639"/>
</svg>
