<svg width="24" height="24" viewBox="0 0 24 24" fill="none" xmlns="http://www.w3.org/2000/svg">
<rect width="24" height="24" rx="12" fill="#7C509A"/>
<path d="M15.7524 5.72757C13.4654 5.29084 11.0906 5.29084 8.80366 5.72757C7.79215 5.94594 6.51675 7.16878 6.29686 8.12959C5.90105 10.0075 5.90105 11.9292 6.29686 13.8071C6.56073 14.7679 7.83612 15.9908 8.80366 16.2091C8.84764 16.2091 8.89162 16.2528 8.89162 16.2965V19.0479C8.89162 19.1789 9.06754 19.2662 9.1555 19.1352L10.4749 17.7813C10.4749 17.7813 11.5304 16.6895 11.7063 16.5148C11.7063 16.5148 11.7503 16.4712 11.7942 16.4712C13.1136 16.5148 14.477 16.3838 15.7963 16.1654C16.8079 15.9471 18.0832 14.7242 18.3031 13.7634C18.699 11.8855 18.699 9.96386 18.3031 8.08592C18.0393 7.16878 16.7639 5.94594 15.7524 5.72757ZM15.7963 13.9381C15.5764 14.3748 15.3126 14.7242 14.8728 14.9426C14.7408 14.9863 14.6089 15.0299 14.477 15.0736C14.301 15.0299 14.1691 14.9863 14.0372 14.9426C12.6298 14.3748 11.3105 13.5887 10.255 12.4532C9.68325 11.7981 9.19948 11.0557 8.80366 10.2696C8.62775 9.87652 8.45183 9.52713 8.3199 9.13407C8.18796 8.78469 8.40785 8.43531 8.62775 8.17327C8.84764 7.91123 9.11152 7.73654 9.41937 7.60552C9.63927 7.4745 9.85916 7.56184 10.0351 7.73654C10.3869 8.17327 10.7387 8.61 11.0026 9.0904C11.1785 9.39611 11.1346 9.7455 10.8267 9.96386C10.7387 10.0075 10.6948 10.0512 10.6068 10.1386C10.5628 10.1822 10.4749 10.2259 10.4309 10.3132C10.3429 10.4443 10.3429 10.5753 10.3869 10.7063C10.7387 11.7108 11.3984 12.4969 12.4099 12.9336C12.5859 13.021 12.7178 13.0647 12.9377 13.0647C13.2456 13.021 13.3775 12.6716 13.5974 12.4969C13.8173 12.3222 14.0812 12.3222 14.345 12.4532C14.5649 12.5842 14.7848 12.7589 15.0487 12.9336C15.2686 13.1083 15.4885 13.2393 15.7084 13.414C15.8403 13.5014 15.8843 13.7198 15.7963 13.9381ZM13.9492 10.6626C13.8613 10.6626 13.9052 10.6626 13.9492 10.6626C13.7733 10.6626 13.7293 10.5753 13.6853 10.4443C13.6853 10.3569 13.6853 10.2259 13.6414 10.1386C13.5974 9.96386 13.5094 9.78917 13.3335 9.65815C13.2456 9.61448 13.1576 9.57081 13.0696 9.52713C12.9377 9.48346 12.8497 9.48346 12.7178 9.48346C12.5859 9.43979 12.5419 9.35244 12.5419 9.22142C12.5419 9.13407 12.6738 9.04673 12.7618 9.04673C13.4654 9.0904 13.9932 9.48346 14.0812 10.3132C14.0812 10.3569 14.0812 10.4443 14.0812 10.4879C14.0812 10.5753 14.0372 10.6626 13.9492 10.6626ZM13.5094 8.74102C13.2895 8.65367 13.0696 8.56632 12.8058 8.52265C12.7178 8.52265 12.5859 8.47898 12.4979 8.47898C12.366 8.47898 12.278 8.39163 12.322 8.26061C12.322 8.12959 12.4099 8.04225 12.5419 8.08592C12.9817 8.12959 13.3775 8.21694 13.7733 8.39163C14.5649 8.78469 15.0047 9.43979 15.1367 10.3132C15.1367 10.3569 15.1367 10.4006 15.1367 10.4443C15.1367 10.5316 15.1367 10.619 15.1367 10.75C15.1367 10.7937 15.1367 10.8373 15.1367 10.881C15.0927 11.0557 14.7848 11.0994 14.7408 10.881C14.7408 10.8373 14.6969 10.75 14.6969 10.7063C14.6969 10.3132 14.6089 9.92019 14.433 9.57081C14.1691 9.17775 13.8613 8.91571 13.5094 8.74102ZM15.8843 11.3614C15.7524 11.3614 15.6644 11.2304 15.6644 11.0994C15.6644 10.8373 15.6204 10.5753 15.5764 10.3132C15.4005 8.91571 14.2571 7.78021 12.8937 7.56184C12.6738 7.51817 12.4539 7.51817 12.278 7.4745C12.1461 7.4745 11.9702 7.4745 11.9262 7.2998C11.8822 7.16879 12.0141 7.03777 12.1461 7.03777C12.1901 7.03777 12.234 7.03777 12.234 7.03777C12.322 7.03777 14.0372 7.08144 12.234 7.03777C14.0812 7.08144 15.6204 8.30429 15.9283 10.1386C15.9722 10.4443 16.0162 10.75 16.0162 11.0994C16.1042 11.2304 16.0162 11.3614 15.8843 11.3614Z" fill="white"/>
</svg>
