<svg width="22" height="22" viewBox="0 0 22 22" fill="none" xmlns="http://www.w3.org/2000/svg">
<path d="M15.3598 6.63433C14.2732 5.55151 12.8244 4.94995 11.2951 4.94995C8.11585 4.94995 5.54024 7.51662 5.54024 10.6848C5.54024 11.6875 5.82195 12.6901 6.30488 13.5322L5.5 16.5L8.55854 15.6979C9.40366 16.139 10.3293 16.3796 11.2951 16.3796C14.4744 16.3796 17.05 13.813 17.05 10.6447C17.0098 9.16089 16.4463 7.71714 15.3598 6.63433ZM14.0719 12.7302C13.9512 13.051 13.3878 13.3718 13.1061 13.4119C12.8646 13.452 12.5427 13.452 12.2207 13.3718C12.0195 13.2916 11.7378 13.2114 11.4159 13.051C9.96707 12.4494 9.04146 11.0057 8.96098 10.8854C8.88049 10.8052 8.35732 10.1234 8.35732 9.40151C8.35732 8.67964 8.71951 8.3588 8.84024 8.19839C8.96098 8.03797 9.12195 8.03797 9.24268 8.03797C9.32317 8.03797 9.4439 8.03797 9.52439 8.03797C9.60488 8.03797 9.72561 7.99787 9.84634 8.2786C9.96707 8.55933 10.2488 9.2812 10.289 9.32131C10.3293 9.40151 10.3293 9.48172 10.289 9.56193C10.2488 9.64214 10.2085 9.72235 10.128 9.80256C10.0476 9.88276 9.96707 10.0031 9.92683 10.0432C9.84634 10.1234 9.76585 10.2036 9.84634 10.3239C9.92683 10.4843 10.2085 10.9255 10.6512 11.3265C11.2146 11.8078 11.6573 11.9682 11.8183 12.0484C11.9793 12.1286 12.0598 12.0885 12.1402 12.0083C12.2207 11.9281 12.5024 11.6072 12.5829 11.4468C12.6634 11.2864 12.7841 11.3265 12.9049 11.3666C13.0256 11.4067 13.75 11.7677 13.8707 11.8479C14.0317 11.9281 14.1122 11.9682 14.1524 12.0083C14.1927 12.1286 14.1927 12.4093 14.0719 12.7302Z" fill="#2E3639"/>
</svg>
