<svg width="24" height="24" viewBox="0 0 24 24" fill="none" xmlns="http://www.w3.org/2000/svg">
<path d="M11.9997 22.76C10.5197 22.76 9.02969 22.2 7.86969 21.09C4.91969 18.25 1.65969 13.72 2.88969 8.33C3.99969 3.44 8.26969 1.25 11.9997 1.25C11.9997 1.25 11.9997 1.25 12.0097 1.25C15.7397 1.25 20.0097 3.44 21.1197 8.34C22.3397 13.73 19.0797 18.25 16.1297 21.09C14.9697 22.2 13.4797 22.76 11.9997 22.76ZM11.9997 2.75C9.08969 2.75 5.34969 4.3 4.35969 8.66C3.27969 13.37 6.23969 17.43 8.91969 20C10.6497 21.67 13.3597 21.67 15.0897 20C17.7597 17.43 20.7197 13.37 19.6597 8.66C18.6597 4.3 14.9097 2.75 11.9997 2.75Z" fill="#239038"/>
<path d="M14.9875 11.725C15.3375 12.1917 15.5125 12.7292 15.5125 13.3375C15.4958 13.9375 15.3125 14.4708 14.9625 14.9375C14.6042 15.3792 14.1458 15.6875 13.5875 15.8625C13.2792 15.9542 12.9417 16 12.575 16H9V7H12.3875C12.7708 7 13.075 7.0375 13.3 7.1125C13.8333 7.2625 14.25 7.55 14.55 7.975C14.8833 8.36667 15.0625 8.85833 15.0875 9.45C15.1125 9.98333 14.9417 10.475 14.575 10.925C14.55 10.9667 14.4958 11.0375 14.4125 11.1375C14.6375 11.3125 14.8292 11.5083 14.9875 11.725ZM12.5375 8.3125H10.425V10.625H12.6625C12.9958 10.5583 13.2458 10.4042 13.4125 10.1625C13.5875 9.95417 13.6667 9.71667 13.65 9.45C13.65 9.16667 13.55 8.91667 13.35 8.7C13.1333 8.44167 12.8625 8.3125 12.5375 8.3125ZM13.675 14.275C13.9333 14.0417 14.0708 13.7292 14.0875 13.3375C14.0875 12.9875 13.975 12.6792 13.75 12.4125C13.4917 12.1042 13.1583 11.95 12.75 11.95H10.425V14.6625H12.5625C13.0625 14.6625 13.4333 14.5333 13.675 14.275Z" fill="#239038"/>
</svg>
