<svg width="137" height="24" viewBox="0 0 137 24" fill="none" xmlns="http://www.w3.org/2000/svg">
<path d="M32 22L41 2L50 22L41 17.6716L32 22Z" fill="#FFAF15"/>
<path d="M0.72 4.728H14.592V7.896H9.432V18H5.88V7.896H0.72V4.728ZM17.1527 4.728H25.0007C26.6167 4.728 27.9447 5.224 28.9847 6.216C30.0247 7.192 30.5447 8.456 30.5447 10.008C30.5447 11.56 30.0247 12.808 28.9847 13.752C27.9447 14.696 26.6167 15.168 25.0007 15.168H20.6807V18H17.1527V4.728ZM20.6807 7.944V11.952H24.8567C25.4967 11.952 26.0087 11.784 26.3927 11.448C26.7927 11.112 26.9927 10.632 26.9927 10.008C26.9927 9.384 26.7927 8.888 26.3927 8.52C26.0087 8.136 25.4967 7.944 24.8567 7.944H20.6807Z" fill="#2E3639"/>
<path d="M52.128 4.728H55.656V9.576H62.16V4.728H65.712V18H62.16V12.744H55.656V18H52.128V4.728ZM82.8283 8.184L80.0923 9.744C79.5803 8.992 78.9963 8.44 78.3403 8.088C77.7003 7.72 76.8923 7.536 75.9163 7.536C74.7323 7.536 73.7803 7.888 73.0603 8.592C72.3563 9.28 72.0043 10.208 72.0043 11.376C72.0043 12.528 72.3643 13.456 73.0843 14.16C73.8043 14.864 74.7483 15.216 75.9163 15.216C77.7403 15.216 79.1243 14.488 80.0683 13.032L82.8043 14.568C81.4603 17.08 79.1803 18.336 75.9643 18.336C73.7883 18.336 71.9963 17.704 70.5883 16.44C69.1963 15.176 68.5003 13.488 68.5003 11.376C68.5003 9.28 69.2043 7.6 70.6123 6.336C72.0363 5.056 73.8203 4.416 75.9643 4.416C79.1643 4.416 81.4523 5.672 82.8283 8.184ZM92.8372 6.096V4.728H96.3652V6.096H98.7412C100.357 6.096 101.693 6.584 102.749 7.56C103.805 8.536 104.333 9.808 104.333 11.376C104.333 12.928 103.805 14.184 102.749 15.144C101.693 16.088 100.357 16.56 98.7412 16.56H96.3652V18H92.8372V16.56H90.4372C88.8212 16.56 87.4852 16.088 86.4292 15.144C85.3892 14.2 84.8692 12.944 84.8692 11.376C84.8692 9.808 85.3892 8.536 86.4292 7.56C87.4852 6.584 88.8212 6.096 90.4372 6.096H92.8372ZM92.8372 9.336H90.5572C89.1172 9.336 88.3972 10.008 88.3972 11.352C88.3972 11.992 88.5892 12.48 88.9732 12.816C89.3572 13.152 89.8852 13.32 90.5572 13.32H92.8372V9.336ZM96.3652 9.336V13.32H98.6212C99.2932 13.32 99.8212 13.152 100.205 12.816C100.589 12.48 100.781 11.992 100.781 11.352C100.781 10.008 100.061 9.336 98.6212 9.336H96.3652ZM106.811 4.728H119.027V7.92H110.339V9.672H118.139V12.864H110.339V14.736H119.339V18H106.811V4.728ZM122.18 4.728H130.028C131.644 4.728 132.972 5.224 134.012 6.216C135.052 7.192 135.572 8.456 135.572 10.008C135.572 11.56 135.052 12.808 134.012 13.752C132.972 14.696 131.644 15.168 130.028 15.168H125.708V18H122.18V4.728ZM125.708 7.944V11.952H129.884C130.524 11.952 131.036 11.784 131.42 11.448C131.82 11.112 132.02 10.632 132.02 10.008C132.02 9.384 131.82 8.888 131.42 8.52C131.036 8.136 130.524 7.944 129.884 7.944H125.708Z" fill="#2E3639"/>
</svg>
